{"title":"Transformers.Dark.Of.The.Moon.BRRip.XviD-RLF","uid":6741447,"size":1477467177,"categoryP":"video","categoryS":"movies","magnet":"?xt=urn:btih:b45386ae0bbd3c84654b487a0a02c21b658ca05f&amp;dn=Transformers.Dark.Of.The.Moon.BRRip.XviD-RLF&amp;tr=udp%3A%2F%2Ftracker.openbittorrent.com%3A80&amp;tr=udp%3A%2F%2Fopen.demonii.com%3A1337&amp;tr=udp%3A%2F%2Ftracker.coppersurfer.tk%3A6969&amp;tr=udp%3A%2F%2Fexodus.desync.com%3A6969","seeders":1,"leechers":0,"uploader":"rlf-rls","files":-1,"time":1318521548,"description":"Transformers.Dark.Of.The.Moon.BRRip.XviD-RLF\n                                            \n\nGeneral:\n\nComplete name                    : rlf-trans3.avi\nFormat                           : AVI\nFormat/Info                      : Audio Video Interleave\nFile size                        : 1.36 GiB\nDuration                         : 2h 34mn\nOverall bit rate                 : 1 260 Kbps\nLanguage                         : English\nSubs                             : Polish , English\nEncoder                          : Ralf\n\nVideo:\n\nFormat                           : MPEG-4 Visual\nFormat profile                   : Advanced Simple@L5\nFormat settings, BVOP            : 2\nFormat settings, QPel            : No\nFormat settings, GMC             : No warppoints\nFormat settings, Matrix          : H.263\nMuxing mode                      : Packed bitstream\nCodec ID                         : XVID\nDuration                         : 2h 34mn\nBit rate                         : 1 119 Kbps\nWidth                            : 688 pixels\nHeight                           : 288 pixels\nDisplay aspect ratio             : 2.35:1\nFrame rate                       : 23.976 fps\nColor space                      : YUV\nChroma subsampling               : 4:2:0\nBit depth                        : 8 bits\nScan type                        : Progressive\nBits/(Pixel*Frame)               : 0.236\nStream size                      : 1.21 GiB (89%)\n\nAudio:\n\nFormat                           : MPEG Audio\nFormat profile                   : Layer 3\nCodec ID/Hint                    : MP3\nDuration                         : 2h 34mn\nBit rate mode                    : Constant\nBit rate                         : 128 Kbps\nChannel(s)                       : 2 channels\nSampling rate                    : 48.0 KHz\nStream size                      : 141 MiB (10%)\nAlignment                        : Split accross interleaves\nInterleave, duration             : 24 ms (0.58 video frame)\n\n\nMOVIE INFO:\n\nThe Autobots learn of a Cybertronian spacecraft hidden on the Moon, and race \nagainst the Decepticons to reach it and to learn its secrets.\n                                &lt;a href=&quot;\nhttp://www.imdb.com/title/tt1399103/&quot; rel=&quot;nofollow&quot; target=&quot;_NEW&quot;&gt;\nhttp://www.imdb.com/title/tt1399103/&lt;/a&gt;\n                   \n                                               \nSOURCE:\n\nMHD 720p.BluRay.x264 (THX)\n\nSCREENS:\n &lt;a href=&quot;\nhttp://www.postimg.com/50000/photo-49217.jpg&quot; rel=&quot;nofollow&quot; target=&quot;_NEW&quot;&gt;\nhttp://www.postimg.com/50000/photo-49217.jpg&lt;/a&gt; &lt;a href=&quot;\nhttp://www.postimg.com/50000/photo-49218.jpg&quot; rel=&quot;nofollow&quot; target=&quot;_NEW&quot;&gt;\nhttp://www.postimg.com/50000/photo-49218.jpg&lt;/a&gt; &lt;a href=&quot;\nhttp://www.postimg.com/50000/photo-49219.jpg&quot; rel=&quot;nofollow&quot; target=&quot;_NEW&quot;&gt;\nhttp://www.postimg.com/50000/photo-49219.jpg&lt;/a&gt; &lt;a href=&quot;\nhttp://www.postimg.com/50000/photo-49220.jpg&quot; rel=&quot;nofollow&quot; target=&quot;_NEW&quot;&gt;\nhttp://www.postimg.com/50000/photo-49220.jpg&lt;/a&gt;\n\n\nPolish version is coming but since i have this nice rip in English i \ndecided to released it. Now everybody can enjoy it.","torrent":{"xt":"urn:btih:b45386ae0bbd3c84654b487a0a02c21b658ca05f","amp;dn":"Transformers.Dark.Of.The.Moon.BRRip.XviD-RLF","amp;tr":["udp%3A%2F%2Ftracker.openbittorrent.com%3A80","udp%3A%2F%2Fopen.demonii.com%3A1337","udp%3A%2F%2Ftracker.coppersurfer.tk%3A6969","udp%3A%2F%2Fexodus.desync.com%3A6969"],"infoHash":"b45386ae0bbd3c84654b487a0a02c21b658ca05f","infoHashBuffer":{"type":"Buffer","data":[180,83,134,174,11,189,60,132,101,75,72,122,10,2,194,27,101,140,160,95]},"announce":[],"urlList":[]}}